<svg version="1.1" id="Layer_1" xmlns="http://www.w3.org/2000/svg" x="0" y="0" viewBox="0 0 180 330" xml:space="preserve"><style>.st1{fill:none}.st2{fill:#fff}</style><path d="M164.9 330H15.1C6.7 330 0 323.3 0 314.9V15.1C0 6.7 6.7 0 15.1 0H165c8.3 0 15.1 6.7 15.1 15.1V315c-.1 8.3-6.8 15-15.2 15z" fill="#1a1a1a"/><path class="st2" d="M150.1 165H29.9c-8.2 0-14.9-6.7-14.9-14.9V30c0-8.3 6.7-15 14.9-15H150c8.2 0 14.9 6.7 14.9 14.9V150c.1 8.4-6.6 15-14.8 15z"/><path d="M99 30.4H106.3v-3.6h3.6v-3.6h-7.2v3.6H95.4v3.6zM113.5 30.4h3.6V34h3.6v-3.6H128v-7.2h-10.9v3.6h-7.2v3.6zM91.8 34v-7.2h3.6v-3.6H84.6v7.2h3.6V34h-3.6v3.6h10.8V34zM66.5 44.8v3.7h3.6V41.2h3.6v-3.6h-7.2v3.6zM113.5 41.2h3.6v3.6h-3.6zM52 44.8h3.6v3.6H52z"/><path d="M59.3 48.5h3.6V37.6h3.6V34h3.6v-3.6h-3.6v-7.2h-3.6V34h-3.6V23.2H52v3.6h3.7V34H52v3.6h3.7v7.2h3.6zM55.7 48.5h3.6v3.6h-3.6zM30.3 52.1h3.6v3.6h-3.6zM52 52.1h3.6v3.6H52zM153.3 52.1v3.6h-3.6v3.6h3.6v3.6h3.6V52.1zM102.7 55.7h3.6v3.6h-3.6z"/><path d="M146 55.7v-3.6h-3.6v7.2h-3.6v-3.6h-7.2v7.2h3.6v3.6h-3.6v-3.6H128v-7.2h3.6v-3.6H128V37.7h-3.6V34h-3.6v10.8h3.6V52h-3.6v-7.2h-3.6v3.6h-3.6v-3.6H110v3.6h-3.6v-7.2h7.2v-3.6H110v-7.2h-3.6V34H99v3.6h-3.6v3.6h-3.6v3.6h3.6v3.6h-3.6v-3.6h-3.6v3.6h-3.6v10.8h3.6v3.6h3.6v-7.2h-3.6V52h3.6v3.6h10.8V52h3.6v3.6h3.6V52h7.2v7.2h3.6v3.6h3.6v3.6h-3.6V70h3.6v3.6h3.6V70h3.6v7.2h3.6V70h3.6v-3.6h3.6v7.2h3.6v3.6h3.6V81h3.6v-3.6h3.6v-7.2H153v3.6h-3.6v-3.6H146V63h3.6v-3.6H146v-3.7zm-47-7.2v-7.2h3.6v7.2H99z"/><path d="M62.9 59.3h7.2v7.2h3.6v-3.6H81v3.6h3.6v3.7h3.6V62.9h-3.6v-3.6H77.3V44.8H81v3.7h3.6V41.2H81v-18h-3.7v3.6h-3.6v3.6h3.6v10.8h-3.6v14.5h-7.2v-7.2h-3.6v7.2h-7.2v3.6h3.6v3.6h3.6zM109.9 59.3h-3.6v3.6h-3.6V70.2H99v3.6h-3.6v-3.6h-3.6v7.2h3.6V81H99v-3.6H106.3V66.5h3.6v-3.6h3.6v3.6h-3.6v3.7h7.2v-3.7h3.6v-3.6h-3.6v-3.6h-3.6z"/><path d="M95.4 66.5H99v-3.6h3.7v-3.6H95.4v3.6h-3.6v3.6zM23.1 66.5h3.6v3.6h-3.6zM48.4 70.2v-3.7h-3.6v-3.6h3.6v-3.6h-3.6v-3.6h3.6v-3.6H37.6v3.6h3.6v7.2h-3.6v3.6h3.6v3.7h3.6zM70.1 66.5h-3.6v-3.6h-3.6v10.9h7.2v-3.6zM81 67.8H73.7V75.1h10.9v-3.7H81zM149.7 66.5h3.6v3.6h-3.6zM37.6 70.2h3.6v3.6h-3.6z"/><path d="M34 77.4V59.3h-3.7v3.6h-3.6v3.6h3.6v3.7h-3.6v7.2h3.6zM70.1 73.8h3.6v3.6h-3.6zM84.6 73.8h3.6v3.6h-3.6zM138.8 73.8h3.6v3.6h-3.6zM23.1 77.4h3.6V81h-3.6zM59.3 77.4v-3.6h-3.6V66.5h3.6v-3.6H52v10.9H41.2v3.6h-3.6V81h3.6v3.6h7.2V81h-3.6v-3.6h10.9V81H52v3.6H59.3V81zM66.5 77.4h-3.6v7.2h-3.6V91.9h3.6v-3.7h3.6V81h3.6v-3.6zM128 81h-3.7v-3.6h-3.6v7.2h3.6V91.9h-3.6v-3.7h-3.6v3.7h-3.6v3.6h-3.6v3.6h7.2v3.6h3.6v-3.6H128v-3.6h3.6v-3.6H128V84.6h3.6V91.9h3.6v3.6h-3.6v3.6H128v3.6h3.6v3.6h3.6v-7.2h3.6v-7.2h3.6v3.6h3.6V81h-3.6v7.2h-7.2v-3.6h3.6v-7.2h-3.6V81h-3.6v-3.6H128zM30.3 81h3.6v3.6h-3.6zM91.8 84.6h-3.6V81h-3.6v7.2h10.8V81h-3.6zM30.3 88.2v-3.6h-7.2v3.6h3.6zM37.6 84.6h3.6v3.6h-3.6zM48.4 84.6H52v3.6h-3.6zM149.7 84.6V91.9h3.6v3.6h-3.6v3.6h3.6v7.2h3.6V81h-3.6v3.6zM30.3 88.2h3.6v3.6h-3.6zM44.8 88.2h3.6v3.6h-3.6zM26.7 91.9h3.6v3.6h-3.6zM75 95.5v3.6h-3.6v3.6H75v3.6H82.3v-3.6h-3.7v-3.6h3.7v3.6h3.6v-7.2h-3.6V88.2h-3.7v-3.6h3.7V81H71.4v3.6H75V91.9h-7.2v3.6h3.6zM23.1 99.1h3.6v3.6h-3.6zM66.5 99.1v-3.6h-3.6v7.2h3.6zM146 99.1h3.6v3.6H146z"/><path d="M84.6 106.3v3.6h7.2v-3.6h-3.6v-3.6h-3.6zM124.3 102.7h3.6v3.6h-3.6zM138.8 102.7v3.6h7.2v-3.6h-3.6zM23.1 106.3h3.6v3.6h-3.6zM70.1 106.3h3.6v3.6h-3.6z"/><path d="M99 106.3v-7.2h3.7v-3.6h3.6v-3.6h3.6v-3.7h-3.6v-3.6h3.6V81h3.6v3.6h-3.6v3.6h7.2V73.8h-7.2v3.6h-3.6V81h-3.6v3.6H99v3.6h3.7v3.7H88.2v3.6h3.6v3.6h-3.6v3.6h7.2v10.7H99v3.8h3.7V109.9h3.6v-3.6h-3.6zM128 106.3h3.6v3.6H128zM149.7 106.3h3.6v3.6h-3.6zM41.2 109.9h-3.6V99.1H30.3v3.6H34v7.2H26.7v3.6h3.6v3.7H37.6v-3.7h10.8v-3.6h-3.6zM66.5 109.9h3.6v3.6h-3.6zM77.3 109.9h3.6v3.5h-3.6zM128 113.5v-3.6H120.7V117.2h3.6v-3.7zM59.3 113.5h3.6v3.6h-3.6z"/><path d="M149.7 113.5v3.6H142.4v7.2h-7.2v-3.6h3.6v-10.8h-7.2v14.4H128v-7.2h-3.6v10.8h-7.2v-3.6h3.6v-7.2h-3.6v3.6h-3.6v-3.6h3.6v-3.6h-3.6v-7.2h3.6v-3.6h-10.8v3.6h3.6v3.6h-3.6v7.2h-3.6v3.6h7.2v3.6h3.6v7.2H110v3.6h3.6v10.8h3.6v-7.2h3.6v-3.6h3.6v10.8h3.6v3.6h-3.6v-3.6h-3.6v3.6h-7.2v7.2H128v-3.6h3.6v-10.8h7.2v3.6h-3.6v3.6h7.2v-7.2h3.6v-3.6h-3.6V128h3.6v-7.2h7.2v3.6h3.6V110h-3.6v3.6h-3.5zm-10.9 18.1v7.2H128V128h10.8v3.6zM23.1 117.2h3.6v3.6h-3.6zM41.2 120.8h7.2v-3.6H37.6v3.6zM88.2 120.8h3.6V113.5h-7.2v3.7h3.6zM26.7 120.8h3.6v3.6h-3.6zM34 120.8h3.6v3.6H34z"/><path d="M62.9 120.8h-7.2v-7.2h3.6V110h3.6v-7.2h-3.6v-7.2h-3.6V92H52v3.6H41.2V92h-3.6v7.2h3.6v7.2h7.2v3.6H52v21.6h3.6v-7.2h3.6v3.6h3.6v-7.2zm-18.1-18.1v-3.6h3.6v3.6h-3.6zm7.2 0v-3.6h3.6v7.2H52v-3.6zM73.7 120.8h3.6V113.5h-3.6v3.7h-3.6V128h3.6v-3.6zM23.1 124.4h3.6v3.6h-3.6zM30.3 124.4h3.6v3.6h-3.6zM44.8 124.4h3.6v3.6h-3.6z"/><path d="M81 124.4h3.6v-7.2H81v3.6h-3.7v7.2h-3.6v3.6h10.9V128H81zM88.2 124.4h-3.6v3.6h7.2v-3.6zM102.7 124.4v-3.6H99v3.6h-3.6v3.6h-3.6v3.6h3.6v3.6h-3.6v3.7h10.9v-3.7H99V128h10.9v-3.6h-3.6zM149.7 124.4h3.6v3.6h-3.6zM62.9 128h3.6v3.6h-3.6zM66.5 131.6h3.6v3.6h-3.6zM131.6 131.6h3.6v3.6h-3.6zM149.7 131.6H146v3.6h3.7v3.7h3.6v-3.7h3.6V128h-3.6v3.6zM62.9 142.5v3.6h3.6v3.6h3.6v-3.6h3.6v-3.6h-7.2V135.2h-3.6v3.7h-7.2v-3.7H52V142.5h3.7v3.6h3.6v-3.6z"/><path d="M88.2 142.5h-3.6v3.6H81v-7.2h3.6v-3.7H77.3v14.5h-3.6v3.6H62.9v3.6H81v-3.6h3.6v3.6h3.6v-7.2h7.2v3.6H99v-7.2h-7.2v-7.2h-3.6zM106.3 142.5h3.6v3.6h-3.6zM149.7 142.5H146v3.6H153.3v3.6h3.6v-10.8h-3.6v3.6zM52 146.1h3.6v3.6H52zM62.9 146.1h-3.6v7.2h3.6v-3.6zM102.7 149.7v3.6h7.2v-3.6h-3.6v-3.6h-3.6zM149.7 153.3v3.6h7.2v-3.6h-3.6v-3.6h-3.6zM55.7 153.3h3.6v3.6h-3.6z"/><path d="M91.8 153.3h3.6v3.6h-3.6zM131.6 153.3h3.6v3.6h-3.6zM138.8 153.3h3.6v3.6h-3.6zM148.3 23.2h-8c-3.9 0-7.2 2.6-8.3 6.1-.1.4-.2.7-.3 1.1-.1.4-.1.9-.1 1.3v8.2c0 4.7 3.9 8.5 8.6 8.5h8c4.8 0 8.6-3.8 8.6-8.5v-8.2c.1-4.7-3.8-8.5-8.5-8.5zm4.8 16.7c0 2.6-2.2 4.7-4.8 4.7h-8c-2.7 0-4.8-2.1-4.8-4.7v-8.2c0-.8.2-1.6.6-2.3.4-.6.9-1.2 1.5-1.6.8-.5 1.7-.9 2.8-.9h8c2.7 0 4.8 2.1 4.8 4.7v8.3z"/><path class="st1" d="M39.8 135.4h-8c-1 0-2 .3-2.8.9-.6.4-1.1 1-1.5 1.6-.4.7-.6 1.4-.6 2.3v8.2c0 2.6 2.2 4.7 4.8 4.7h8c2.7 0 4.8-2.1 4.8-4.7v-8.2c.1-2.6-2.1-4.8-4.7-4.8z"/><path d="M39.8 131.6h-8c-3.9 0-7.2 2.6-8.3 6.1-.1.4-.2.7-.3 1.1-.1.4-.1.9-.1 1.3v8.2c0 4.7 3.9 8.5 8.6 8.5h8c4.8 0 8.6-3.8 8.6-8.5v-8.2c.1-4.6-3.8-8.5-8.5-8.5zm4.8 16.8c0 2.6-2.2 4.7-4.8 4.7h-8c-2.7 0-4.8-2.1-4.8-4.7v-8.2c0-.8.2-1.6.6-2.3.4-.6.9-1.2 1.5-1.6.8-.5 1.7-.9 2.8-.9h8c2.7 0 4.8 2.1 4.8 4.7v8.3zM33.3 41.2c-1.6 0-3-1.3-3-2.9v-5c0-.5.1-1 .4-1.4.2-.4.5-.7.9-1 .5-.3 1.1-.5 1.7-.5h4.9c1.6 0 3 1.3 3 2.9v5c0 1.6-1.3 2.9-3 2.9h-4.9zM141.8 41.2c-1.6 0-3-1.3-3-2.9v-5c0-.5.1-1 .4-1.4.2-.4.5-.7.9-1 .5-.3 1.1-.5 1.7-.5h4.9c1.6 0 3 1.3 3 2.9v5c0 1.6-1.3 2.9-3 2.9h-4.9z"/><path d="M33.3 149.7c-1.6 0-3-1.3-3-2.9v-5c0-.5.1-1 .4-1.4.2-.4.5-.7.9-1 .5-.3 1.1-.5 1.7-.5h4.9c1.6 0 3 1.3 3 2.9v5c0 1.6-1.3 2.9-3 2.9h-4.9z"/><g><path id="rect2987_1_" class="st2" d="M74.7 66.5h30.5c4.5 0 8.2 3.7 8.2 8.2v30.5c0 4.5-3.7 8.2-8.2 8.2H74.7c-4.5 0-8.2-3.7-8.2-8.2V74.8c0-4.6 3.7-8.3 8.2-8.3z"/><radialGradient id="SVGID_1_" cx="-328.585" cy="1829.974" r="755.693" gradientTransform="matrix(.06178 0 0 .06178 106.374 -41.528)" gradientUnits="userSpaceOnUse"><stop offset="0" stop-color="#3ebd44"/><stop offset="1" stop-color="#3ebd44"/></radialGradient><path d="M91.3 110.8c-2.3 0-4.8-.4-7.3-1.1h-.1c-5.8-1.8-10.1-5.1-12.8-9.8-2.7-4.9-3.2-10.2-1.4-15.9 1.8-5.9 5.2-10.1 10.1-12.6 2.8-1.4 5.8-2.1 8.9-2.1 2.3 0 4.6.4 7 1.1h.1c5.9 1.8 10.3 5.1 13 9.8 2.7 4.8 3.2 10.2 1.4 16.1-1.7 5.7-5.1 9.9-10.1 12.3-2.7 1.5-5.7 2.2-8.8 2.2z" fill="url(#SVGID_1_)"/><path class="st2" d="M77.7 92.4s.1 0 0 0l3.4-3.6c.3-.3.6-.4 1-.4h2.1c.4 0 .6.5.3.8l-3 3v.1l3.4 4.5c.2.3 0 .7-.4.7h-2c-.4 0-.8-.2-1.1-.5l-2-2.7h-.1L77.8 96v.9c0 .4-.3.8-.8.8h-1.3c-.4 0-.8-.3-.8-.8V83.6c0-.4.3-.8.8-.8H77c.4 0 .8.3.8.8v8.8zM87.7 83.9c1 0 1.7.6 1.7 1.4 0 .8-.6 1.4-1.7 1.4-1 0-1.7-.6-1.7-1.4 0-.7.7-1.4 1.7-1.4zm1.4 12.9c0 .4-.3.8-.8.8H87c-.4 0-.8-.3-.8-.8v-7.6c0-.4.3-.8.8-.8h1.3c.4 0 .8.3.8.8v7.6zM102.9 85c-.8 0-1.5.5-1.5 1.7v1.7h2.3c.4 0 .8.3.8.8v.8c0 .4-.3.8-.8.8h-2.3v6c0 .4-.3.8-.8.8h-1.3c-.4 0-.8-.3-.8-.8v-6h-3.7v6c0 .4-.3.8-.8.8h-1.3c-.4 0-.8-.3-.8-.8v-6h-.5c-.4 0-.8-.3-.8-.8v-.9c0-.4.3-.8.8-.8h.5v-1.9c0-2.5 1.8-3.9 4.1-3.9.6 0 1.1.1 1.5.2.4.1.6.6.5 1l-.3.8c-.1.4-.5.6-.9.5-.2 0-.4-.1-.6-.1-.8 0-1.4.5-1.4 1.7v1.7h3.7v-1.9c0-2.5 1.8-3.9 4.1-3.9.9 0 1.6.2 2.1.3.4.2.6.6.4 1l-.3.8c-.1.4-.5.6-.9.5-.4 0-.7-.1-1-.1z"/></g><path class="st1" d="M39.8 27h-8c-1 0-2 .3-2.8.9-.6.4-1.1 1-1.5 1.6-.4.7-.6 1.4-.6 2.3V40c0 2.6 2.2 4.7 4.8 4.7h8c2.7 0 4.8-2.1 4.8-4.7v-8.2c.1-2.7-2.1-4.8-4.7-4.8z"/><path d="M39.8 23.2h-8c-3.9 0-7.2 2.6-8.3 6.1-.1.4-.2.7-.3 1.1-.1.4-.1.9-.1 1.3v8.2c0 4.7 3.9 8.5 8.6 8.5h8c4.8 0 8.6-3.8 8.6-8.5v-8.2c.1-4.7-3.8-8.5-8.5-8.5zm4.8 16.7c0 2.6-2.2 4.7-4.8 4.7h-8c-2.7 0-4.8-2.1-4.8-4.7v-8.2c0-.8.2-1.6.6-2.3.4-.6.9-1.2 1.5-1.6.8-.5 1.7-.9 2.8-.9h8c2.7 0 4.8 2.1 4.8 4.7v8.3z"/><g><path class="st2" d="M42.4 190.7c-3.5 0-6.1 2.7-6.1 7.6 0 4.9 2.5 7.7 6.2 7.7 3.3 0 5.4-2 5.4-5.1h-5v-3.1h8.9v2.6c0 5.6-3.9 9.1-9.3 9.1-6 0-10.1-4.3-10.1-11.2 0-7 4.3-11.2 10-11.2 4.8 0 8.5 3 9.2 7.3h-4c-.8-2.3-2.6-3.7-5.2-3.7zM54.7 201.2c0-5 3.1-8.5 7.7-8.5 4 0 7.5 2.5 7.5 8.3v1.2H58.5c0 2.8 1.7 4.4 4.2 4.4 1.7 0 2.9-.7 3.5-2.1l3.6.4c-.7 2.8-3.3 4.7-7.1 4.7-5 0-8-3.3-8-8.4zm11.5-1.7c0-2.2-1.5-3.8-3.7-3.8-2.3 0-3.8 1.8-4 3.8h7.7zM81.3 195.9h-3.2v8.5c0 1.6.8 1.9 1.7 1.9.5 0 .9-.1 1.1-.1l.6 3c-.4.1-1.2.4-2.3.4-2.9.1-5.1-1.4-5.1-4.5V196h-2.3v-3h2.3v-4H78v3.9h3.2v3zM90.8 209.2l7.7-21.8h4.9l7.7 21.8h-4.2l-1.8-5.4h-8.2l-1.8 5.4h-4.3zm13.1-8.5l-3-8.8h-.2l-3 8.8h6.2zM113.7 192.9h3.8v2.7h.2c.6-1.2 1.8-2.9 4.7-2.9 3.8 0 6.8 3 6.8 8.4s-2.9 8.4-6.7 8.4c-2.8 0-4.1-1.7-4.7-2.9h-.2v8.7h-3.9v-22.4zm7.7 13.5c2.5 0 3.9-2.2 3.9-5.3 0-3-1.3-5.2-3.9-5.2-2.5 0-3.8 2.1-3.8 5.2s1.3 5.3 3.8 5.3zM132.5 192.9h3.8v2.7h.2c.6-1.2 1.8-2.9 4.7-2.9 3.8 0 6.8 3 6.8 8.4s-2.9 8.4-6.7 8.4c-2.8 0-4.1-1.7-4.7-2.9h-.2v8.7h-3.9v-22.4zm7.6 13.5c2.5 0 3.9-2.2 3.9-5.3 0-3-1.3-5.2-3.9-5.2-2.5 0-3.8 2.1-3.8 5.2s1.3 5.3 3.8 5.3zM50.9 231.9h-3.4v13.4h-3.9v-13.4h-2.4v-3h2.4v-1.5c0-3.3 2.3-4.9 5.1-4.9 1.3 0 2.4.3 2.9.4l-.8 3c-.3-.1-.8-.2-1.4-.2-1.4 0-2 .7-2 2v1.3h3.4v2.9zM52.6 237.1c0-5.1 3-8.5 7.8-8.5s7.8 3.4 7.8 8.5-3 8.4-7.8 8.4c-4.8.1-7.8-3.3-7.8-8.4zm11.7 0c0-3-1.3-5.4-3.9-5.4-2.7 0-4 2.4-4 5.4 0 3 1.3 5.4 4 5.4 2.6 0 3.9-2.4 3.9-5.4zM71.5 228.9h3.7v2.7h.2c.6-1.9 2.2-3 4-3 .4 0 1 0 1.4.1v3.5c-.3-.1-1.1-.2-1.8-.2-2.1 0-3.7 1.5-3.7 3.5v9.6h-3.9v-16.2zM90.6 224.5c0-1.2 1-2.1 2.2-2.1 1.2 0 2.2.9 2.2 2.1 0 1.2-1 2.1-2.2 2.1-1.2 0-2.2-1-2.2-2.1zm.3 4.4h3.9v16.4h-3.9v-16.4zM108.3 245.5c-5.7 0-10-4.2-10-11.2 0-7.1 4.3-11.2 10-11.2s10 4.2 10 11.2-4.3 11.2-10 11.2zm0-18.8c-3.5 0-6 2.7-6 7.7s2.5 7.7 6 7.7c3.6 0 6-2.7 6-7.7s-2.4-7.7-6-7.7zM129.8 226.5c-2.5 0-3.9 1.2-4 2.8 0 1.8 1.9 2.6 3.7 3l2 .5c3.3.8 6.4 2.5 6.4 6.3s-3 6.5-8.3 6.5c-5.1 0-8.3-2.4-8.5-6.8h3.9c.2 2.3 2.1 3.4 4.5 3.4 2.6 0 4.3-1.2 4.4-3.1 0-1.7-1.6-2.4-3.9-3l-2.5-.6c-3.6-.9-5.8-2.7-5.8-5.9 0-3.9 3.4-6.4 8-6.4s7.8 2.6 7.9 6.3h-3.8c-.1-1.9-1.6-3-4-3z"/></g><g><path class="st2" d="M32.7 268.2c-1.7 0-2.9.9-2.9 2.2 0 1.4 1.6 1.9 2.5 2.2l1.3.4c1.4.4 3.7 1.2 3.7 3.6 0 2.1-1.7 3.8-4.7 3.8-2.8 0-4.6-1.5-4.7-3.6h1.6c.1 1.5 1.5 2.2 3.1 2.2 1.8 0 3.2-.9 3.2-2.4 0-1.3-1.2-1.8-2.6-2.2l-1.6-.5c-2-.6-3.3-1.6-3.3-3.4 0-2.2 2-3.7 4.5-3.7s4.4 1.5 4.4 3.5h-1.5c-.2-1.4-1.4-2.1-3-2.1zM39.3 275.2c0-3 1.8-5.1 4.4-5.1 2.1 0 3.6 1.2 3.9 3.1h-1.5c-.2-.9-1-1.7-2.4-1.7-1.8 0-2.9 1.5-2.9 3.7 0 2.3 1.2 3.8 2.9 3.8 1.2 0 2.1-.6 2.4-1.7h1.5c-.3 1.7-1.7 3.1-3.9 3.1-2.7-.2-4.4-2.3-4.4-5.2zM49.4 277.2c0-2.2 2-2.7 3.8-2.9 1.8-.2 2.5-.2 2.5-.9v-.1c0-1.3-.7-2-2.1-2-1.4 0-2.2.8-2.6 1.5l-1.4-.5c.8-1.8 2.5-2.3 3.9-2.3 1.3 0 3.6.4 3.6 3.5v6.5h-1.5v-1.3h-.1c-.3.6-1.2 1.6-2.9 1.6-1.8 0-3.2-1.1-3.2-3.1zm6.3-.7v-1.4c-.3.3-2 .5-2.6.6-1.2.2-2.2.5-2.2 1.7 0 1 .9 1.6 2.1 1.6 1.7-.1 2.7-1.3 2.7-2.5zM61.5 280H60v-9.8h1.5v1.5h.1c.5-1 1.4-1.7 2.9-1.7 2 0 3.3 1.2 3.3 3.7v6.2h-1.5v-6.1c0-1.5-.9-2.5-2.3-2.5s-2.5 1-2.5 2.7v6zM74.8 270.2h1.6l2.1 7.5h.1l2.1-7.5h1.6l2.1 7.5h.1l2.1-7.5h1.6l-3 9.8h-1.5l-2.1-7.5h-.2l-2.1 7.5h-1.5l-3-9.8zM89.9 267.5c0-.6.5-1 1.1-1 .6 0 1.1.5 1.1 1s-.5 1-1.1 1c-.6.1-1.1-.4-1.1-1zm.3 2.7h1.5v9.8h-1.5v-9.8zM98.7 271.5h-2.1v5.7c0 1.3.6 1.5 1.3 1.5.3 0 .5-.1.7-.1l.3 1.4c-.2.1-.6.2-1.1.2-1.3 0-2.7-.8-2.7-2.5v-6.1h-1.5v-1.3h1.5v-2.4h1.5v2.4h2.1v1.2zM102.7 280h-1.5v-13.1h1.5v4.8h.1c.5-1 1.3-1.7 2.9-1.7 2 0 3.4 1.2 3.4 3.7v6.2h-1.5v-6.1c0-1.6-.9-2.5-2.3-2.5-1.5 0-2.6 1-2.6 2.7v6zM116.8 283.5l.4-1.3c1.1.3 1.8.1 2.3-1.4l.3-.8-3.6-9.9h1.6l2.7 7.8h.1l2.7-7.8h1.7l-4.2 11.2c-.6 1.5-1.5 2.3-2.9 2.3-.5.1-1 0-1.1-.1zM126.1 275.2c0-3.1 1.8-5.1 4.4-5.1 2.7 0 4.5 2 4.5 5.1 0 3-1.8 5.1-4.5 5.1-2.6-.1-4.4-2.1-4.4-5.1zm7.4 0c0-2-.9-3.7-2.9-3.7s-2.9 1.8-2.9 3.7c0 2 .9 3.7 2.9 3.7s2.9-1.8 2.9-3.7zM143.5 270.2h1.5v9.8h-1.5v-1.7h-.1c-.5 1-1.4 1.8-2.9 1.8-1.8 0-3.2-1.2-3.2-3.7v-6.2h1.5v6.1c0 1.4.9 2.4 2.1 2.4 1.1 0 2.5-.8 2.5-2.7v-5.8zM147.8 270.2h1.5v1.5h.1c.4-1 1.4-1.6 2.6-1.6h.8v1.5c-.1 0-.5-.1-.9-.1-1.4 0-2.5 1-2.5 2.3v6.2h-1.5v-9.8zM24.9 292.2h1.5v1.6h.2c.3-.5.9-1.7 2.8-1.7 2.5 0 4.2 2 4.2 5.1 0 3.1-1.7 5.1-4.2 5.1-1.9 0-2.5-1.2-2.9-1.7h-.1v5.2h-1.5v-13.6zm4.3 8.7c1.9 0 2.9-1.7 2.9-3.8 0-2.1-.9-3.7-2.9-3.7-1.8 0-2.8 1.5-2.8 3.7s1 3.8 2.8 3.8zM37.4 302h-1.5v-13.1h1.5v4.8h.1c.5-1 1.3-1.7 2.9-1.7 2 0 3.4 1.2 3.4 3.7v6.2h-1.5v-6.1c0-1.6-.9-2.5-2.3-2.5-1.5 0-2.6 1-2.6 2.7v6zM46 297.2c0-3.1 1.8-5.1 4.5-5.1s4.4 2 4.4 5.1c0 3-1.8 5.1-4.4 5.1s-4.5-2.1-4.5-5.1zm7.4 0c0-2-.9-3.7-2.9-3.7s-2.9 1.8-2.9 3.7c0 2 .9 3.7 2.9 3.7s2.9-1.8 2.9-3.7zM58.8 302h-1.5v-9.8h1.5v1.5h.1c.5-1 1.4-1.7 2.9-1.7 2 0 3.3 1.2 3.3 3.7v6.2h-1.5v-6.1c0-1.5-.9-2.5-2.3-2.5s-2.5 1-2.5 2.7v6zM67.3 297.2c0-3 1.8-5.1 4.4-5.1 2 0 4.2 1.3 4.2 4.9v.6h-7.1c.1 2.1 1.3 3.2 3.1 3.2 1.2 0 2.1-.5 2.5-1.5l1.5.4c-.5 1.5-1.9 2.5-3.9 2.5-2.9 0-4.7-2-4.7-5zm7.1-.9c0-1.7-1-2.9-2.7-2.9-1.7 0-2.8 1.4-2.9 2.9h5.6zM79.6 290.1c0 1-.6 2.4-1.6 3.2l-.8-.7c.5-.8 1-1.6 1-2.5v-1.2h1.4v1.2zM85.8 294.8c-.3-.7-.8-1.4-2.1-1.4-1.2 0-2.1.6-2.1 1.5 0 .8.5 1.1 1.7 1.4l1.5.4c1.8.4 2.6 1.3 2.6 2.7 0 1.7-1.6 2.9-3.8 2.9-2 0-3.4-.9-3.7-2.6l1.4-.4c.3 1.1 1 1.6 2.3 1.6 1.4 0 2.3-.7 2.3-1.5 0-.7-.5-1.2-1.5-1.4l-1.6-.4c-1.8-.4-2.6-1.3-2.6-2.7 0-1.7 1.5-2.8 3.6-2.8 1.9 0 3 .9 3.5 2.3l-1.5.4zM94.2 297.2c0-3 1.8-5.1 4.4-5.1 2.1 0 3.6 1.2 3.9 3.1H101c-.2-.9-1-1.7-2.4-1.7-1.8 0-2.9 1.5-2.9 3.7 0 2.3 1.2 3.8 2.9 3.8 1.2 0 2.1-.6 2.4-1.7h1.5c-.3 1.7-1.7 3.1-3.9 3.1-2.7-.2-4.4-2.3-4.4-5.2zM104.3 299.2c0-2.2 2-2.7 3.8-2.9 1.8-.2 2.5-.2 2.5-.9v-.1c0-1.3-.7-2-2.1-2-1.4 0-2.2.8-2.6 1.5l-1.4-.5c.8-1.8 2.5-2.3 3.9-2.3 1.3 0 3.6.4 3.6 3.5v6.5h-1.5v-1.3h-.1c-.3.6-1.2 1.6-2.9 1.6s-3.2-1.1-3.2-3.1zm6.3-.7v-1.4c-.3.3-2 .5-2.6.6-1.2.2-2.2.5-2.2 1.7 0 1 .9 1.6 2.1 1.6 1.7-.1 2.7-1.3 2.7-2.5zM114.9 292.2h1.5v1.5h.1c.4-1 1.4-1.7 2.6-1.7 1.3 0 2.1.6 2.6 1.7h.1c.5-1 1.5-1.7 2.9-1.7 1.8 0 3 1.1 3 3.4v6.6h-1.5v-6.6c0-1.5-.9-2-2-2-1.4 0-2.2.9-2.2 2.2v6.4h-1.5v-6.7c0-1.1-.8-1.9-1.9-1.9-1.2 0-2.2 1-2.2 2.5v6.1h-1.5v-9.8zM130.1 297.2c0-3 1.8-5.1 4.4-5.1 2 0 4.2 1.3 4.2 4.9v.6h-7.1c.1 2.1 1.3 3.2 3.1 3.2 1.2 0 2.1-.5 2.5-1.5l1.5.4c-.5 1.5-1.9 2.5-3.9 2.5-3 0-4.7-2-4.7-5zm7.1-.9c0-1.7-1-2.9-2.7-2.9-1.7 0-2.8 1.4-2.9 2.9h5.6zM141 292.2h1.5v1.5h.1c.4-1 1.4-1.6 2.6-1.6h.8v1.5c-.1 0-.5-.1-.9-.1-1.4 0-2.5 1-2.5 2.3v6.2H141v-9.8zM147.2 299.2c0-2.2 2-2.7 3.8-2.9 1.8-.2 2.5-.2 2.5-.9v-.1c0-1.3-.7-2-2.1-2-1.4 0-2.2.8-2.6 1.5l-1.4-.5c.8-1.8 2.5-2.3 3.9-2.3 1.3 0 3.6.4 3.6 3.5v6.5h-1.5v-1.3h-.1c-.3.6-1.2 1.6-2.9 1.6s-3.2-1.1-3.2-3.1zm6.4-.7v-1.4c-.3.3-2 .5-2.6.6-1.2.2-2.2.5-2.2 1.7 0 1 .9 1.6 2.1 1.6 1.7-.1 2.7-1.3 2.7-2.5z"/></g></svg>